# xmcd CD database file
#
# Track frame offsets:
#	150
#	14205
#	30115
#	47467
#	60285
#	75412
#	96560
#	116827
#	134152
#	147660
#	165237
#	180657
#	195715
#	210060
#
# Disc length: 3003 seconds
#
# Revision: 4
# Processed by: cddbd v1.5.1PL0 Copyright (c) Steve Scherf et al.
# Submitted via: CDex 1.40Release
#
DISCID=b90bb90e
DTITLE=Luan and Leomar - Na Boca do Brasil
DYEAR=2005
DGENRE=Country
TTITLE0=Na boca do Brasil
TTITLE1=De segunda a segunda
TTITLE2=O mundo parou
TTITLE3=To Chorando
TTITLE4=A Culpa Foi Voce
TTITLE5=Talvez
TTITLE6=Sonhei Com Voce
TTITLE7=Coraçao De Joelhos
TTITLE8=Alegria Ta com Tudo
TTITLE9=Temporal de Solidao
TTITLE10=Viva a Vida
TTITLE11=Seu Melhor Namorado
TTITLE12=To Caindo Fora
TTITLE13=Luz Vermelha
EXTD=YEAR: 2005 ID3G: 2
EXTT0=
EXTT1=
EXTT2=
EXTT3=
EXTT4=
EXTT5=
EXTT6=
EXTT7=
EXTT8=
EXTT9=
EXTT10=
EXTT11=
EXTT12=
EXTT13=
PLAYORDER=
